<mxfile host="app.diagrams.net" modified="2022-02-17T15:53:53.691Z" agent="5.0 (Macintosh; Intel Mac OS X 10_15_7) AppleWebKit/537.36 (KHTML, like Gecko) Chrome/98.0.4758.80 Safari/537.36" etag="tD9mElAzY79M0yEQ4IXd" version="16.5.6" type="github">
  <diagram name="Page-1" id="58cdce13-f638-feb5-8d6f-7d28b1aa9fa0">
    <mxGraphModel dx="2778" dy="802" grid="1" gridSize="10" guides="1" tooltips="1" connect="1" arrows="1" fold="1" page="1" pageScale="1" pageWidth="1100" pageHeight="850" background="none" math="0" shadow="0">
      <root>
        <mxCell id="0" />
        <mxCell id="1" parent="0" />
        <mxCell id="sQvePdWLGlQkghEIPyvW-17" value="" style="edgeStyle=orthogonalEdgeStyle;rounded=0;orthogonalLoop=1;jettySize=auto;html=1;" edge="1" parent="1" source="sQvePdWLGlQkghEIPyvW-1" target="sQvePdWLGlQkghEIPyvW-16">
          <mxGeometry relative="1" as="geometry" />
        </mxCell>
        <mxCell id="sQvePdWLGlQkghEIPyvW-1" value="Randomize groups in request" style="rounded=1;whiteSpace=wrap;html=1;fillColor=#d5e8d4;strokeColor=#82b366;" vertex="1" parent="1">
          <mxGeometry x="80" y="130" width="120" height="60" as="geometry" />
        </mxCell>
        <mxCell id="sQvePdWLGlQkghEIPyvW-11" value="" style="edgeStyle=orthogonalEdgeStyle;rounded=0;orthogonalLoop=1;jettySize=auto;html=1;" edge="1" parent="1" source="sQvePdWLGlQkghEIPyvW-6" target="sQvePdWLGlQkghEIPyvW-1">
          <mxGeometry relative="1" as="geometry" />
        </mxCell>
        <mxCell id="sQvePdWLGlQkghEIPyvW-6" value="Groups Endpoint" style="ellipse;whiteSpace=wrap;html=1;aspect=fixed;fillColor=#000000;labelPosition=center;verticalLabelPosition=bottom;align=center;verticalAlign=top;" vertex="1" parent="1">
          <mxGeometry y="140" width="40" height="40" as="geometry" />
        </mxCell>
        <mxCell id="sQvePdWLGlQkghEIPyvW-19" value="" style="edgeStyle=orthogonalEdgeStyle;rounded=0;orthogonalLoop=1;jettySize=auto;html=1;" edge="1" parent="1" source="sQvePdWLGlQkghEIPyvW-16" target="sQvePdWLGlQkghEIPyvW-18">
          <mxGeometry relative="1" as="geometry" />
        </mxCell>
        <mxCell id="sQvePdWLGlQkghEIPyvW-16" value="Validate request" style="rounded=1;whiteSpace=wrap;html=1;fillColor=#d5e8d4;strokeColor=#82b366;" vertex="1" parent="1">
          <mxGeometry x="80" y="270" width="120" height="60" as="geometry" />
        </mxCell>
        <mxCell id="sQvePdWLGlQkghEIPyvW-26" value="FALSE" style="edgeStyle=orthogonalEdgeStyle;rounded=0;orthogonalLoop=1;jettySize=auto;html=1;" edge="1" parent="1" source="sQvePdWLGlQkghEIPyvW-18" target="sQvePdWLGlQkghEIPyvW-8">
          <mxGeometry relative="1" as="geometry" />
        </mxCell>
        <mxCell id="sQvePdWLGlQkghEIPyvW-39" value="TRUE" style="edgeStyle=orthogonalEdgeStyle;rounded=0;orthogonalLoop=1;jettySize=auto;html=1;fontColor=#000000;" edge="1" parent="1" source="sQvePdWLGlQkghEIPyvW-18" target="sQvePdWLGlQkghEIPyvW-38">
          <mxGeometry relative="1" as="geometry" />
        </mxCell>
        <mxCell id="sQvePdWLGlQkghEIPyvW-18" value="Is Valid" style="rhombus;whiteSpace=wrap;html=1;rounded=1;labelPosition=center;verticalLabelPosition=bottom;align=center;verticalAlign=top;fillColor=#dae8fc;strokeColor=#6c8ebf;" vertex="1" parent="1">
          <mxGeometry x="300" y="260" width="80" height="80" as="geometry" />
        </mxCell>
        <mxCell id="sQvePdWLGlQkghEIPyvW-28" value="" style="group" vertex="1" connectable="0" parent="1">
          <mxGeometry x="295" y="120" width="90" height="60" as="geometry" />
        </mxCell>
        <mxCell id="sQvePdWLGlQkghEIPyvW-9" value="" style="group" vertex="1" connectable="0" parent="sQvePdWLGlQkghEIPyvW-28">
          <mxGeometry x="25" y="20" width="40" height="40" as="geometry" />
        </mxCell>
        <mxCell id="sQvePdWLGlQkghEIPyvW-7" value="" style="ellipse;whiteSpace=wrap;html=1;aspect=fixed;fillColor=#000000;" vertex="1" parent="sQvePdWLGlQkghEIPyvW-9">
          <mxGeometry width="40" height="40" as="geometry" />
        </mxCell>
        <mxCell id="sQvePdWLGlQkghEIPyvW-8" value="" style="ellipse;whiteSpace=wrap;html=1;aspect=fixed;fillColor=#f8cecc;strokeColor=#b85450;" vertex="1" parent="sQvePdWLGlQkghEIPyvW-9">
          <mxGeometry x="5" y="5" width="30" height="30" as="geometry" />
        </mxCell>
        <mxCell id="sQvePdWLGlQkghEIPyvW-27" value="RETURN 400" style="text;html=1;align=center;verticalAlign=middle;resizable=0;points=[];autosize=1;strokeColor=none;fillColor=none;" vertex="1" parent="sQvePdWLGlQkghEIPyvW-28">
          <mxGeometry width="90" height="20" as="geometry" />
        </mxCell>
        <mxCell id="sQvePdWLGlQkghEIPyvW-30" value="" style="group" vertex="1" connectable="0" parent="1">
          <mxGeometry x="80" y="425" width="90" height="60" as="geometry" />
        </mxCell>
        <mxCell id="sQvePdWLGlQkghEIPyvW-31" value="" style="group" vertex="1" connectable="0" parent="sQvePdWLGlQkghEIPyvW-30">
          <mxGeometry x="25" y="20" width="40" height="40" as="geometry" />
        </mxCell>
        <mxCell id="sQvePdWLGlQkghEIPyvW-32" value="" style="ellipse;whiteSpace=wrap;html=1;aspect=fixed;fillColor=#000000;" vertex="1" parent="sQvePdWLGlQkghEIPyvW-31">
          <mxGeometry width="40" height="40" as="geometry" />
        </mxCell>
        <mxCell id="sQvePdWLGlQkghEIPyvW-33" value="" style="ellipse;whiteSpace=wrap;html=1;aspect=fixed;fillColor=#FCFCFC;" vertex="1" parent="sQvePdWLGlQkghEIPyvW-31">
          <mxGeometry x="5" y="5" width="30" height="30" as="geometry" />
        </mxCell>
        <mxCell id="sQvePdWLGlQkghEIPyvW-34" value="RETURN 400" style="text;html=1;align=center;verticalAlign=middle;resizable=0;points=[];autosize=1;strokeColor=none;fillColor=none;" vertex="1" parent="sQvePdWLGlQkghEIPyvW-30">
          <mxGeometry width="90" height="20" as="geometry" />
        </mxCell>
        <mxCell id="sQvePdWLGlQkghEIPyvW-41" value="" style="edgeStyle=orthogonalEdgeStyle;rounded=0;orthogonalLoop=1;jettySize=auto;html=1;fontColor=#CCFFCC;" edge="1" parent="1" source="sQvePdWLGlQkghEIPyvW-38" target="sQvePdWLGlQkghEIPyvW-40">
          <mxGeometry relative="1" as="geometry" />
        </mxCell>
        <mxCell id="sQvePdWLGlQkghEIPyvW-38" value="Sort request groups" style="whiteSpace=wrap;html=1;verticalAlign=middle;fillColor=#d5e8d4;strokeColor=#82b366;rounded=1;" vertex="1" parent="1">
          <mxGeometry x="440" y="270" width="120" height="60" as="geometry" />
        </mxCell>
        <mxCell id="sQvePdWLGlQkghEIPyvW-43" value="" style="edgeStyle=orthogonalEdgeStyle;rounded=0;orthogonalLoop=1;jettySize=auto;html=1;fontColor=#CCFFCC;" edge="1" parent="1" source="sQvePdWLGlQkghEIPyvW-40" target="sQvePdWLGlQkghEIPyvW-42">
          <mxGeometry relative="1" as="geometry" />
        </mxCell>
        <mxCell id="sQvePdWLGlQkghEIPyvW-40" value="Get randomization strategy matrix" style="whiteSpace=wrap;html=1;fillColor=#d5e8d4;strokeColor=#82b366;rounded=1;" vertex="1" parent="1">
          <mxGeometry x="640" y="270" width="120" height="60" as="geometry" />
        </mxCell>
        <mxCell id="sQvePdWLGlQkghEIPyvW-45" value="" style="edgeStyle=orthogonalEdgeStyle;rounded=0;orthogonalLoop=1;jettySize=auto;html=1;fontColor=#CCFFCC;" edge="1" parent="1" source="sQvePdWLGlQkghEIPyvW-42" target="sQvePdWLGlQkghEIPyvW-44">
          <mxGeometry relative="1" as="geometry" />
        </mxCell>
        <mxCell id="sQvePdWLGlQkghEIPyvW-42" value="Create response(final) matrix" style="whiteSpace=wrap;html=1;fillColor=#d5e8d4;strokeColor=#82b366;rounded=1;" vertex="1" parent="1">
          <mxGeometry x="840" y="270" width="120" height="60" as="geometry" />
        </mxCell>
        <mxCell id="sQvePdWLGlQkghEIPyvW-47" value="" style="edgeStyle=orthogonalEdgeStyle;rounded=0;orthogonalLoop=1;jettySize=auto;html=1;fontColor=#CCFFCC;" edge="1" parent="1" source="sQvePdWLGlQkghEIPyvW-44" target="sQvePdWLGlQkghEIPyvW-46">
          <mxGeometry relative="1" as="geometry" />
        </mxCell>
        <mxCell id="sQvePdWLGlQkghEIPyvW-44" value="Clone matrix" style="whiteSpace=wrap;html=1;fillColor=#d5e8d4;strokeColor=#82b366;rounded=1;" vertex="1" parent="1">
          <mxGeometry x="840" y="410" width="120" height="60" as="geometry" />
        </mxCell>
        <mxCell id="sQvePdWLGlQkghEIPyvW-49" value="TRUE" style="edgeStyle=orthogonalEdgeStyle;rounded=0;orthogonalLoop=1;jettySize=auto;html=1;fontColor=#000000;" edge="1" parent="1" source="sQvePdWLGlQkghEIPyvW-46" target="sQvePdWLGlQkghEIPyvW-48">
          <mxGeometry relative="1" as="geometry" />
        </mxCell>
        <mxCell id="sQvePdWLGlQkghEIPyvW-46" value="There are at least one rep with buffers" style="rhombus;whiteSpace=wrap;html=1;fillColor=#dae8fc;strokeColor=#6c8ebf;rounded=1;labelPosition=center;verticalLabelPosition=bottom;align=center;verticalAlign=top;" vertex="1" parent="1">
          <mxGeometry x="1060" y="400" width="80" height="80" as="geometry" />
        </mxCell>
        <mxCell id="sQvePdWLGlQkghEIPyvW-53" value="TRUE" style="edgeStyle=orthogonalEdgeStyle;rounded=0;orthogonalLoop=1;jettySize=auto;html=1;fontColor=#000000;" edge="1" parent="1" source="sQvePdWLGlQkghEIPyvW-48" target="sQvePdWLGlQkghEIPyvW-52">
          <mxGeometry relative="1" as="geometry" />
        </mxCell>
        <mxCell id="sQvePdWLGlQkghEIPyvW-48" value="Add buffer plots" style="whiteSpace=wrap;html=1;verticalAlign=middle;fillColor=#d5e8d4;strokeColor=#82b366;rounded=1;" vertex="1" parent="1">
          <mxGeometry x="1200" y="410" width="120" height="60" as="geometry" />
        </mxCell>
        <mxCell id="sQvePdWLGlQkghEIPyvW-56" value="" style="edgeStyle=orthogonalEdgeStyle;rounded=0;orthogonalLoop=1;jettySize=auto;html=1;fontColor=#000000;" edge="1" parent="1" source="sQvePdWLGlQkghEIPyvW-52" target="sQvePdWLGlQkghEIPyvW-55">
          <mxGeometry relative="1" as="geometry" />
        </mxCell>
        <mxCell id="sQvePdWLGlQkghEIPyvW-52" value="There are at least one rep with borders" style="rhombus;whiteSpace=wrap;html=1;fillColor=#dae8fc;strokeColor=#6c8ebf;rounded=1;labelPosition=center;verticalLabelPosition=bottom;align=center;verticalAlign=top;" vertex="1" parent="1">
          <mxGeometry x="1420" y="400" width="80" height="80" as="geometry" />
        </mxCell>
        <mxCell id="sQvePdWLGlQkghEIPyvW-54" value="FALSE" style="endArrow=classic;html=1;rounded=0;fontColor=#000000;exitX=0.5;exitY=0;exitDx=0;exitDy=0;entryX=0;entryY=0.5;entryDx=0;entryDy=0;" edge="1" parent="1" source="sQvePdWLGlQkghEIPyvW-46" target="sQvePdWLGlQkghEIPyvW-52">
          <mxGeometry x="-0.0385" width="50" height="50" relative="1" as="geometry">
            <mxPoint x="950" y="300" as="sourcePoint" />
            <mxPoint x="1000" y="250" as="targetPoint" />
            <Array as="points">
              <mxPoint x="1100" y="320" />
              <mxPoint x="1270" y="320" />
              <mxPoint x="1420" y="320" />
            </Array>
            <mxPoint x="1" as="offset" />
          </mxGeometry>
        </mxCell>
        <mxCell id="sQvePdWLGlQkghEIPyvW-55" value="Add border plots" style="whiteSpace=wrap;html=1;verticalAlign=middle;fillColor=#d5e8d4;strokeColor=#82b366;rounded=1;" vertex="1" parent="1">
          <mxGeometry x="1560" y="410" width="120" height="60" as="geometry" />
        </mxCell>
        <mxCell id="sQvePdWLGlQkghEIPyvW-71" value="" style="edgeStyle=orthogonalEdgeStyle;rounded=0;orthogonalLoop=1;jettySize=auto;html=1;fontColor=#000000;" edge="1" parent="1" source="sQvePdWLGlQkghEIPyvW-57" target="sQvePdWLGlQkghEIPyvW-70">
          <mxGeometry relative="1" as="geometry" />
        </mxCell>
        <mxCell id="sQvePdWLGlQkghEIPyvW-57" value="There are at least one rep with buffers" style="rhombus;html=1;fillColor=#dae8fc;strokeColor=#6c8ebf;rounded=1;verticalAlign=top;labelPosition=center;verticalLabelPosition=bottom;align=center;" vertex="1" parent="1">
          <mxGeometry x="1860" y="400" width="80" height="80" as="geometry" />
        </mxCell>
        <mxCell id="sQvePdWLGlQkghEIPyvW-59" value="The common value is equal to the range value in the request" style="rhombus;fillColor=#dae8fc;strokeColor=#6c8ebf;rounded=1;verticalAlign=top;labelPosition=center;verticalLabelPosition=bottom;align=center;html=1;" vertex="1" parent="1">
          <mxGeometry x="1860" y="240" width="80" height="80" as="geometry" />
        </mxCell>
        <mxCell id="sQvePdWLGlQkghEIPyvW-61" value="The strategy does not employ x by y rep packing" style="rhombus;html=1;fillColor=#dae8fc;strokeColor=#6c8ebf;rounded=1;verticalAlign=top;labelPosition=center;verticalLabelPosition=bottom;align=center;" vertex="1" parent="1">
          <mxGeometry x="1860" y="560" width="80" height="80" as="geometry" />
        </mxCell>
        <mxCell id="sQvePdWLGlQkghEIPyvW-64" value="AND" style="endArrow=classic;startArrow=classic;html=1;rounded=0;fontColor=#000000;entryX=0.5;entryY=1;entryDx=0;entryDy=0;exitX=0.5;exitY=0;exitDx=0;exitDy=0;" edge="1" parent="1" source="sQvePdWLGlQkghEIPyvW-57" target="sQvePdWLGlQkghEIPyvW-59">
          <mxGeometry width="50" height="50" relative="1" as="geometry">
            <mxPoint x="1640" y="470" as="sourcePoint" />
            <mxPoint x="1690" y="420" as="targetPoint" />
          </mxGeometry>
        </mxCell>
        <mxCell id="sQvePdWLGlQkghEIPyvW-66" value="AND" style="endArrow=classic;startArrow=classic;html=1;rounded=0;fontColor=#000000;entryX=0.5;entryY=1;entryDx=0;entryDy=0;exitX=0.5;exitY=0;exitDx=0;exitDy=0;" edge="1" parent="1" source="sQvePdWLGlQkghEIPyvW-61" target="sQvePdWLGlQkghEIPyvW-57">
          <mxGeometry width="50" height="50" relative="1" as="geometry">
            <mxPoint x="1640" y="470" as="sourcePoint" />
            <mxPoint x="1690" y="420" as="targetPoint" />
          </mxGeometry>
        </mxCell>
        <mxCell id="sQvePdWLGlQkghEIPyvW-68" value="" style="endArrow=classic;html=1;rounded=0;fontColor=#000000;entryX=0;entryY=0.5;entryDx=0;entryDy=0;exitX=1;exitY=0.5;exitDx=0;exitDy=0;" edge="1" parent="1" source="sQvePdWLGlQkghEIPyvW-55" target="sQvePdWLGlQkghEIPyvW-57">
          <mxGeometry width="50" height="50" relative="1" as="geometry">
            <mxPoint x="1640" y="470" as="sourcePoint" />
            <mxPoint x="1690" y="420" as="targetPoint" />
          </mxGeometry>
        </mxCell>
        <mxCell id="sQvePdWLGlQkghEIPyvW-74" value="TRUE" style="edgeStyle=orthogonalEdgeStyle;rounded=0;orthogonalLoop=1;jettySize=auto;html=1;fontColor=#000000;" edge="1" parent="1" source="sQvePdWLGlQkghEIPyvW-70" target="sQvePdWLGlQkghEIPyvW-73">
          <mxGeometry relative="1" as="geometry" />
        </mxCell>
        <mxCell id="sQvePdWLGlQkghEIPyvW-76" value="" style="edgeStyle=orthogonalEdgeStyle;rounded=0;orthogonalLoop=1;jettySize=auto;html=1;fontColor=#000000;" edge="1" parent="1" source="sQvePdWLGlQkghEIPyvW-70" target="sQvePdWLGlQkghEIPyvW-75">
          <mxGeometry relative="1" as="geometry" />
        </mxCell>
        <mxCell id="sQvePdWLGlQkghEIPyvW-77" value="FALSE" style="edgeLabel;html=1;align=center;verticalAlign=middle;resizable=0;points=[];fontColor=#000000;" vertex="1" connectable="0" parent="sQvePdWLGlQkghEIPyvW-76">
          <mxGeometry x="-0.425" relative="1" as="geometry">
            <mxPoint as="offset" />
          </mxGeometry>
        </mxCell>
        <mxCell id="sQvePdWLGlQkghEIPyvW-70" value="" style="rhombus;html=1;fillColor=#dae8fc;strokeColor=#6c8ebf;rounded=1;verticalAlign=top;labelPosition=center;verticalLabelPosition=bottom;align=center;" vertex="1" parent="1">
          <mxGeometry x="2140" y="400" width="80" height="80" as="geometry" />
        </mxCell>
        <mxCell id="sQvePdWLGlQkghEIPyvW-118" value="TRUE" style="edgeStyle=orthogonalEdgeStyle;rounded=0;orthogonalLoop=1;jettySize=auto;html=1;fontColor=#000000;" edge="1" parent="1" source="sQvePdWLGlQkghEIPyvW-73" target="sQvePdWLGlQkghEIPyvW-117">
          <mxGeometry relative="1" as="geometry" />
        </mxCell>
        <mxCell id="sQvePdWLGlQkghEIPyvW-73" value="The request specifies to place by x axis" style="rhombus;html=1;fillColor=#dae8fc;strokeColor=#6c8ebf;rounded=1;verticalAlign=top;labelPosition=center;verticalLabelPosition=bottom;align=center;" vertex="1" parent="1">
          <mxGeometry x="2420" y="400" width="80" height="80" as="geometry" />
        </mxCell>
        <mxCell id="sQvePdWLGlQkghEIPyvW-82" value="" style="edgeStyle=orthogonalEdgeStyle;rounded=0;orthogonalLoop=1;jettySize=auto;html=1;fontColor=#000000;" edge="1" parent="1" target="sQvePdWLGlQkghEIPyvW-81">
          <mxGeometry relative="1" as="geometry">
            <mxPoint x="2360" y="680" as="sourcePoint" />
          </mxGeometry>
        </mxCell>
        <mxCell id="sQvePdWLGlQkghEIPyvW-75" value="There are at least one rep with buffers" style="rhombus;html=1;fillColor=#dae8fc;strokeColor=#6c8ebf;rounded=1;verticalAlign=top;labelPosition=center;verticalLabelPosition=bottom;align=center;" vertex="1" parent="1">
          <mxGeometry x="2140" y="560" width="80" height="80" as="geometry" />
        </mxCell>
        <mxCell id="sQvePdWLGlQkghEIPyvW-78" value="The column value plus twice the value of the borders is equal to the length of the matrix" style="rhombus;html=1;verticalAlign=top;fillColor=#dae8fc;strokeColor=#6c8ebf;rounded=1;labelPosition=center;verticalLabelPosition=bottom;align=center;whiteSpace=wrap;" vertex="1" parent="1">
          <mxGeometry x="2140" y="710" width="80" height="80" as="geometry" />
        </mxCell>
        <mxCell id="sQvePdWLGlQkghEIPyvW-80" value="AND" style="endArrow=classic;startArrow=classic;html=1;rounded=0;fontColor=#000000;exitX=1;exitY=0.5;exitDx=0;exitDy=0;entryX=1;entryY=0.5;entryDx=0;entryDy=0;" edge="1" parent="1" source="sQvePdWLGlQkghEIPyvW-75" target="sQvePdWLGlQkghEIPyvW-78">
          <mxGeometry width="50" height="50" relative="1" as="geometry">
            <mxPoint x="2280" y="640" as="sourcePoint" />
            <mxPoint x="2330" y="590" as="targetPoint" />
            <Array as="points">
              <mxPoint x="2360" y="680" />
            </Array>
          </mxGeometry>
        </mxCell>
        <mxCell id="sQvePdWLGlQkghEIPyvW-88" value="" style="edgeStyle=orthogonalEdgeStyle;rounded=0;orthogonalLoop=1;jettySize=auto;html=1;fontColor=#000000;entryX=-0.038;entryY=0.379;entryDx=0;entryDy=0;entryPerimeter=0;" edge="1" parent="1" source="sQvePdWLGlQkghEIPyvW-81" target="sQvePdWLGlQkghEIPyvW-85">
          <mxGeometry relative="1" as="geometry" />
        </mxCell>
        <mxCell id="sQvePdWLGlQkghEIPyvW-92" value="" style="edgeStyle=orthogonalEdgeStyle;rounded=0;orthogonalLoop=1;jettySize=auto;html=1;fontColor=#000000;" edge="1" parent="1" source="sQvePdWLGlQkghEIPyvW-81" target="sQvePdWLGlQkghEIPyvW-91">
          <mxGeometry relative="1" as="geometry" />
        </mxCell>
        <mxCell id="sQvePdWLGlQkghEIPyvW-81" value="" style="rhombus;html=1;fillColor=#dae8fc;strokeColor=#6c8ebf;rounded=1;verticalAlign=top;labelPosition=center;verticalLabelPosition=bottom;align=center;" vertex="1" parent="1">
          <mxGeometry x="2400" y="640" width="80" height="80" as="geometry" />
        </mxCell>
        <mxCell id="sQvePdWLGlQkghEIPyvW-83" value="" style="group" vertex="1" connectable="0" parent="1">
          <mxGeometry x="2570" y="644" width="100" height="60" as="geometry" />
        </mxCell>
        <mxCell id="sQvePdWLGlQkghEIPyvW-84" value="" style="group" vertex="1" connectable="0" parent="sQvePdWLGlQkghEIPyvW-83">
          <mxGeometry x="25" y="20" width="40" height="40" as="geometry" />
        </mxCell>
        <mxCell id="sQvePdWLGlQkghEIPyvW-85" value="" style="ellipse;whiteSpace=wrap;html=1;aspect=fixed;fillColor=#000000;" vertex="1" parent="sQvePdWLGlQkghEIPyvW-84">
          <mxGeometry width="40" height="40" as="geometry" />
        </mxCell>
        <mxCell id="sQvePdWLGlQkghEIPyvW-86" value="" style="ellipse;whiteSpace=wrap;html=1;aspect=fixed;fillColor=#FCFCFC;" vertex="1" parent="sQvePdWLGlQkghEIPyvW-84">
          <mxGeometry x="5" y="5" width="30" height="30" as="geometry" />
        </mxCell>
        <mxCell id="sQvePdWLGlQkghEIPyvW-87" value="RETURN MATRIX" style="text;html=1;align=center;verticalAlign=middle;resizable=0;points=[];autosize=1;strokeColor=none;fillColor=none;" vertex="1" parent="sQvePdWLGlQkghEIPyvW-83">
          <mxGeometry x="-10" width="110" height="20" as="geometry" />
        </mxCell>
        <mxCell id="sQvePdWLGlQkghEIPyvW-91" value="Flatten the matrix using lodash zip" style="whiteSpace=wrap;html=1;verticalAlign=middle;fillColor=#d5e8d4;strokeColor=#82b366;rounded=1;" vertex="1" parent="1">
          <mxGeometry x="2380" y="810" width="120" height="60" as="geometry" />
        </mxCell>
        <mxCell id="sQvePdWLGlQkghEIPyvW-93" value="" style="group" vertex="1" connectable="0" parent="1">
          <mxGeometry x="2570" y="800" width="100" height="60" as="geometry" />
        </mxCell>
        <mxCell id="sQvePdWLGlQkghEIPyvW-94" value="" style="group" vertex="1" connectable="0" parent="sQvePdWLGlQkghEIPyvW-93">
          <mxGeometry x="25" y="20" width="40" height="40" as="geometry" />
        </mxCell>
        <mxCell id="sQvePdWLGlQkghEIPyvW-95" value="" style="ellipse;whiteSpace=wrap;html=1;aspect=fixed;fillColor=#000000;" vertex="1" parent="sQvePdWLGlQkghEIPyvW-94">
          <mxGeometry width="40" height="40" as="geometry" />
        </mxCell>
        <mxCell id="sQvePdWLGlQkghEIPyvW-96" value="" style="ellipse;whiteSpace=wrap;html=1;aspect=fixed;fillColor=#FCFCFC;" vertex="1" parent="sQvePdWLGlQkghEIPyvW-94">
          <mxGeometry x="5" y="5" width="30" height="30" as="geometry" />
        </mxCell>
        <mxCell id="sQvePdWLGlQkghEIPyvW-97" value="RETURN MATRIX" style="text;html=1;align=center;verticalAlign=middle;resizable=0;points=[];autosize=1;strokeColor=none;fillColor=none;" vertex="1" parent="sQvePdWLGlQkghEIPyvW-93">
          <mxGeometry x="-10" width="110" height="20" as="geometry" />
        </mxCell>
        <mxCell id="sQvePdWLGlQkghEIPyvW-98" value="" style="endArrow=classic;html=1;rounded=0;fontColor=#000000;exitX=1;exitY=0.5;exitDx=0;exitDy=0;entryX=0;entryY=0.5;entryDx=0;entryDy=0;" edge="1" parent="1" source="sQvePdWLGlQkghEIPyvW-91" target="sQvePdWLGlQkghEIPyvW-95">
          <mxGeometry width="50" height="50" relative="1" as="geometry">
            <mxPoint x="2390" y="810" as="sourcePoint" />
            <mxPoint x="2440" y="760" as="targetPoint" />
          </mxGeometry>
        </mxCell>
        <mxCell id="sQvePdWLGlQkghEIPyvW-110" value="" style="group" vertex="1" connectable="0" parent="1">
          <mxGeometry x="2415" y="548" width="100" height="60" as="geometry" />
        </mxCell>
        <mxCell id="sQvePdWLGlQkghEIPyvW-111" value="" style="group" vertex="1" connectable="0" parent="sQvePdWLGlQkghEIPyvW-110">
          <mxGeometry x="25" y="20" width="40" height="40" as="geometry" />
        </mxCell>
        <mxCell id="sQvePdWLGlQkghEIPyvW-112" value="" style="ellipse;whiteSpace=wrap;html=1;aspect=fixed;fillColor=#000000;" vertex="1" parent="sQvePdWLGlQkghEIPyvW-111">
          <mxGeometry width="40" height="40" as="geometry" />
        </mxCell>
        <mxCell id="sQvePdWLGlQkghEIPyvW-113" value="" style="ellipse;whiteSpace=wrap;html=1;aspect=fixed;fillColor=#FCFCFC;" vertex="1" parent="sQvePdWLGlQkghEIPyvW-111">
          <mxGeometry x="5" y="5" width="30" height="30" as="geometry" />
        </mxCell>
        <mxCell id="sQvePdWLGlQkghEIPyvW-114" value="RETURN MATRIX" style="text;html=1;align=center;verticalAlign=middle;resizable=0;points=[];autosize=1;strokeColor=none;fillColor=none;" vertex="1" parent="sQvePdWLGlQkghEIPyvW-110">
          <mxGeometry x="-10" width="110" height="20" as="geometry" />
        </mxCell>
        <mxCell id="sQvePdWLGlQkghEIPyvW-115" value="" style="endArrow=classic;html=1;rounded=0;fontColor=#000000;exitX=0.5;exitY=1;exitDx=0;exitDy=0;" edge="1" parent="1" source="sQvePdWLGlQkghEIPyvW-73">
          <mxGeometry width="50" height="50" relative="1" as="geometry">
            <mxPoint x="2390" y="660" as="sourcePoint" />
            <mxPoint x="2460" y="550" as="targetPoint" />
          </mxGeometry>
        </mxCell>
        <mxCell id="sQvePdWLGlQkghEIPyvW-116" value="FALSE" style="edgeLabel;html=1;align=center;verticalAlign=middle;resizable=0;points=[];fontColor=#000000;" vertex="1" connectable="0" parent="sQvePdWLGlQkghEIPyvW-115">
          <mxGeometry x="-0.0453" y="1" relative="1" as="geometry">
            <mxPoint as="offset" />
          </mxGeometry>
        </mxCell>
        <mxCell id="sQvePdWLGlQkghEIPyvW-125" value="" style="edgeStyle=orthogonalEdgeStyle;rounded=0;orthogonalLoop=1;jettySize=auto;html=1;fontColor=#000000;entryX=0;entryY=0.5;entryDx=0;entryDy=0;" edge="1" parent="1" source="sQvePdWLGlQkghEIPyvW-117" target="sQvePdWLGlQkghEIPyvW-122">
          <mxGeometry relative="1" as="geometry" />
        </mxCell>
        <mxCell id="sQvePdWLGlQkghEIPyvW-117" value="Flatten the matrix using lodash zip" style="whiteSpace=wrap;html=1;verticalAlign=middle;fillColor=#d5e8d4;strokeColor=#82b366;rounded=1;" vertex="1" parent="1">
          <mxGeometry x="2560" y="410" width="120" height="60" as="geometry" />
        </mxCell>
        <mxCell id="sQvePdWLGlQkghEIPyvW-120" value="" style="group" vertex="1" connectable="0" parent="1">
          <mxGeometry x="2760" y="400" width="100" height="60" as="geometry" />
        </mxCell>
        <mxCell id="sQvePdWLGlQkghEIPyvW-121" value="" style="group" vertex="1" connectable="0" parent="sQvePdWLGlQkghEIPyvW-120">
          <mxGeometry x="25" y="20" width="40" height="40" as="geometry" />
        </mxCell>
        <mxCell id="sQvePdWLGlQkghEIPyvW-122" value="" style="ellipse;whiteSpace=wrap;html=1;aspect=fixed;fillColor=#000000;" vertex="1" parent="sQvePdWLGlQkghEIPyvW-121">
          <mxGeometry width="40" height="40" as="geometry" />
        </mxCell>
        <mxCell id="sQvePdWLGlQkghEIPyvW-123" value="" style="ellipse;whiteSpace=wrap;html=1;aspect=fixed;fillColor=#FCFCFC;" vertex="1" parent="sQvePdWLGlQkghEIPyvW-121">
          <mxGeometry x="5" y="5" width="30" height="30" as="geometry" />
        </mxCell>
        <mxCell id="sQvePdWLGlQkghEIPyvW-124" value="RETURN MATRIX" style="text;html=1;align=center;verticalAlign=middle;resizable=0;points=[];autosize=1;strokeColor=none;fillColor=none;" vertex="1" parent="sQvePdWLGlQkghEIPyvW-120">
          <mxGeometry x="-10" width="110" height="20" as="geometry" />
        </mxCell>
      </root>
    </mxGraphModel>
  </diagram>
</mxfile>
